<mxfile host="app.diagrams.net" modified="2020-09-27T16:47:29.623Z" agent="5.0 (Windows NT 10.0; Win64; x64) AppleWebKit/537.36 (KHTML, like Gecko) Chrome/85.0.4183.121 Safari/537.36" etag="s2CWgJzvzPS-AyFzoDbQ" version="13.7.5" type="github">
  <diagram name="Page-1" id="2c0d36ab-eaac-3732-788b-9136903baeff">
    <mxGraphModel dx="2031" dy="1019" grid="1" gridSize="10" guides="1" tooltips="1" connect="1" arrows="1" fold="1" page="1" pageScale="1.5" pageWidth="1169" pageHeight="827" background="#ffffff" math="0" shadow="0">
      <root>
        <mxCell id="0" />
        <mxCell id="1" parent="0" />
        <mxCell id="123" value="" style="fillColor=#AE4132;strokeColor=none;opacity=30;" parent="1" vertex="1">
          <mxGeometry x="747" y="175.50000000000003" width="210" height="99.99999999999994" as="geometry" />
        </mxCell>
        <mxCell id="122" value="" style="fillColor=#10739E;strokeColor=none;opacity=30;" parent="1" vertex="1">
          <mxGeometry x="97" y="325.5" width="1703" height="100" as="geometry" />
        </mxCell>
        <mxCell id="RLwRSnZGENSbhSUasO3h-126" style="edgeStyle=orthogonalEdgeStyle;rounded=0;orthogonalLoop=1;jettySize=auto;html=1;exitX=0.5;exitY=1;exitDx=0;exitDy=0;strokeWidth=2;" edge="1" parent="1" source="2" target="10">
          <mxGeometry relative="1" as="geometry" />
        </mxCell>
        <mxCell id="RLwRSnZGENSbhSUasO3h-146" style="edgeStyle=orthogonalEdgeStyle;rounded=0;orthogonalLoop=1;jettySize=auto;html=1;entryX=0.5;entryY=0;entryDx=0;entryDy=0;strokeWidth=2;" edge="1" parent="1" source="2" target="RLwRSnZGENSbhSUasO3h-127">
          <mxGeometry relative="1" as="geometry" />
        </mxCell>
        <mxCell id="RLwRSnZGENSbhSUasO3h-180" style="edgeStyle=orthogonalEdgeStyle;rounded=0;orthogonalLoop=1;jettySize=auto;html=1;exitX=0.5;exitY=1;exitDx=0;exitDy=0;entryX=0.5;entryY=0;entryDx=0;entryDy=0;strokeWidth=2;" edge="1" parent="1" source="2" target="RLwRSnZGENSbhSUasO3h-179">
          <mxGeometry relative="1" as="geometry" />
        </mxCell>
        <mxCell id="RLwRSnZGENSbhSUasO3h-181" style="edgeStyle=orthogonalEdgeStyle;rounded=0;orthogonalLoop=1;jettySize=auto;html=1;exitX=0.5;exitY=1;exitDx=0;exitDy=0;strokeWidth=2;" edge="1" parent="1" source="2" target="RLwRSnZGENSbhSUasO3h-129">
          <mxGeometry relative="1" as="geometry" />
        </mxCell>
        <mxCell id="2" value="Horns&amp;Hooves LLC &#xa;(Crypto company)" style="rounded=1;fillColor=#23445D;gradientColor=none;strokeColor=none;fontColor=#FFFFFF;fontStyle=1;fontFamily=Tahoma;fontSize=14" parent="1" vertex="1">
          <mxGeometry x="757" y="185.5" width="190" height="80" as="geometry" />
        </mxCell>
        <mxCell id="4" value="Contacts" style="rounded=1;fillColor=#23445D;gradientColor=none;strokeColor=none;fontColor=#FFFFFF;fontStyle=1;fontFamily=Tahoma;fontSize=14" parent="1" vertex="1">
          <mxGeometry x="1366.9999999999998" y="335.5" width="190" height="80" as="geometry" />
        </mxCell>
        <mxCell id="9" value="" style="edgeStyle=elbowEdgeStyle;elbow=vertical;strokeWidth=2;rounded=0" parent="1" source="2" target="4" edge="1">
          <mxGeometry x="337" y="215.5" width="100" height="100" as="geometry">
            <mxPoint x="337" y="315.5" as="sourcePoint" />
            <mxPoint x="437" y="215.5" as="targetPoint" />
            <Array as="points">
              <mxPoint x="1050" y="301" />
            </Array>
          </mxGeometry>
        </mxCell>
        <mxCell id="RLwRSnZGENSbhSUasO3h-140" style="edgeStyle=orthogonalEdgeStyle;rounded=0;orthogonalLoop=1;jettySize=auto;html=1;entryX=0;entryY=0.5;entryDx=0;entryDy=0;strokeWidth=2;" edge="1" parent="1" source="10" target="30">
          <mxGeometry relative="1" as="geometry" />
        </mxCell>
        <mxCell id="RLwRSnZGENSbhSUasO3h-167" style="edgeStyle=orthogonalEdgeStyle;rounded=0;orthogonalLoop=1;jettySize=auto;html=1;exitX=0.5;exitY=1;exitDx=0;exitDy=0;entryX=0;entryY=0.5;entryDx=0;entryDy=0;strokeWidth=2;" edge="1" parent="1" source="10" target="32">
          <mxGeometry relative="1" as="geometry">
            <Array as="points">
              <mxPoint x="705" y="440" />
              <mxPoint x="630" y="440" />
              <mxPoint x="630" y="660" />
            </Array>
          </mxGeometry>
        </mxCell>
        <mxCell id="RLwRSnZGENSbhSUasO3h-201" style="edgeStyle=orthogonalEdgeStyle;rounded=0;orthogonalLoop=1;jettySize=auto;html=1;exitX=0.5;exitY=1;exitDx=0;exitDy=0;entryX=0;entryY=0.5;entryDx=0;entryDy=0;strokeWidth=2;" edge="1" parent="1" source="10" target="31">
          <mxGeometry relative="1" as="geometry">
            <Array as="points">
              <mxPoint x="705" y="440" />
              <mxPoint x="630" y="440" />
              <mxPoint x="630" y="576" />
            </Array>
          </mxGeometry>
        </mxCell>
        <mxCell id="10" value="Security" style="rounded=1;fillColor=#23445D;gradientColor=none;strokeColor=none;fontColor=#FFFFFF;fontStyle=1;fontFamily=Tahoma;fontSize=14" parent="1" vertex="1">
          <mxGeometry x="610" y="335.5" width="190" height="80" as="geometry" />
        </mxCell>
        <mxCell id="RLwRSnZGENSbhSUasO3h-134" style="edgeStyle=orthogonalEdgeStyle;rounded=0;orthogonalLoop=1;jettySize=auto;html=1;exitX=0.5;exitY=1;exitDx=0;exitDy=0;entryX=0;entryY=0.5;entryDx=0;entryDy=0;strokeWidth=2;" edge="1" parent="1" source="12" target="25">
          <mxGeometry relative="1" as="geometry" />
        </mxCell>
        <mxCell id="RLwRSnZGENSbhSUasO3h-163" style="edgeStyle=orthogonalEdgeStyle;rounded=0;orthogonalLoop=1;jettySize=auto;html=1;exitX=0.5;exitY=1;exitDx=0;exitDy=0;entryX=0;entryY=0.5;entryDx=0;entryDy=0;strokeWidth=2;" edge="1" parent="1" source="12" target="26">
          <mxGeometry relative="1" as="geometry">
            <Array as="points">
              <mxPoint x="452" y="440" />
              <mxPoint x="410" y="440" />
              <mxPoint x="410" y="660" />
            </Array>
          </mxGeometry>
        </mxCell>
        <mxCell id="RLwRSnZGENSbhSUasO3h-164" style="edgeStyle=orthogonalEdgeStyle;rounded=0;orthogonalLoop=1;jettySize=auto;html=1;exitX=0.5;exitY=1;exitDx=0;exitDy=0;entryX=0;entryY=0.5;entryDx=0;entryDy=0;strokeWidth=2;" edge="1" parent="1" source="12" target="27">
          <mxGeometry relative="1" as="geometry">
            <Array as="points">
              <mxPoint x="452" y="440" />
              <mxPoint x="410" y="440" />
              <mxPoint x="410" y="740" />
            </Array>
          </mxGeometry>
        </mxCell>
        <mxCell id="12" value="Application" style="rounded=1;fillColor=#23445D;gradientColor=none;strokeColor=none;fontColor=#FFFFFF;fontStyle=1;fontFamily=Tahoma;fontSize=14" parent="1" vertex="1">
          <mxGeometry x="356.9999999999999" y="335.5" width="190" height="80" as="geometry" />
        </mxCell>
        <mxCell id="RLwRSnZGENSbhSUasO3h-137" style="edgeStyle=orthogonalEdgeStyle;rounded=0;orthogonalLoop=1;jettySize=auto;html=1;exitX=0.5;exitY=1;exitDx=0;exitDy=0;entryX=1;entryY=0.5;entryDx=0;entryDy=0;strokeWidth=2;" edge="1" parent="1" source="13" target="RLwRSnZGENSbhSUasO3h-130">
          <mxGeometry relative="1" as="geometry" />
        </mxCell>
        <mxCell id="13" value="Exchange" style="rounded=1;fillColor=#23445D;gradientColor=none;strokeColor=none;fontColor=#FFFFFF;fontStyle=1;fontFamily=Tahoma;fontSize=14" parent="1" vertex="1">
          <mxGeometry x="107" y="335.5" width="190" height="80" as="geometry" />
        </mxCell>
        <mxCell id="RLwRSnZGENSbhSUasO3h-136" style="edgeStyle=orthogonalEdgeStyle;rounded=0;orthogonalLoop=1;jettySize=auto;html=1;exitX=0.5;exitY=1;exitDx=0;exitDy=0;entryX=0;entryY=0.5;entryDx=0;entryDy=0;strokeWidth=2;" edge="1" parent="1" source="14" target="12">
          <mxGeometry relative="1" as="geometry" />
        </mxCell>
        <mxCell id="14" value="Download app" style="rounded=1;fillColor=#23445D;gradientColor=none;strokeColor=none;fontColor=#FFFFFF;fontStyle=1;fontFamily=Tahoma;fontSize=14" parent="1" vertex="1">
          <mxGeometry x="220" y="480" width="130" height="60" as="geometry" />
        </mxCell>
        <mxCell id="16" value="Trade HnH/USD" style="rounded=1;fillColor=#23445D;gradientColor=none;strokeColor=none;fontColor=#FFFFFF;fontStyle=1;fontFamily=Tahoma;fontSize=14" parent="1" vertex="1">
          <mxGeometry x="40" y="455.5" width="130" height="60" as="geometry" />
        </mxCell>
        <mxCell id="17" value="Trade XRP/USD" style="rounded=1;fillColor=#23445D;gradientColor=none;strokeColor=none;fontColor=#FFFFFF;fontStyle=1;fontFamily=Tahoma;fontSize=14" parent="1" vertex="1">
          <mxGeometry x="40" y="545.5" width="130" height="60" as="geometry" />
        </mxCell>
        <mxCell id="18" value="Trade BTC/USD" style="rounded=1;fillColor=#23445D;gradientColor=none;strokeColor=none;fontColor=#FFFFFF;fontStyle=1;fontFamily=Tahoma;fontSize=14" parent="1" vertex="1">
          <mxGeometry x="40" y="630" width="130" height="60" as="geometry" />
        </mxCell>
        <mxCell id="19" value="Trade ETC/USD" style="rounded=1;fillColor=#23445D;gradientColor=none;strokeColor=none;fontColor=#FFFFFF;fontStyle=1;fontFamily=Tahoma;fontSize=14" parent="1" vertex="1">
          <mxGeometry x="40" y="710" width="130" height="60" as="geometry" />
        </mxCell>
        <mxCell id="20" value="Trade DnD/USD" style="rounded=1;fillColor=#23445D;gradientColor=none;strokeColor=none;fontColor=#FFFFFF;fontStyle=1;fontFamily=Tahoma;fontSize=14" parent="1" vertex="1">
          <mxGeometry x="40" y="800" width="130" height="60" as="geometry" />
        </mxCell>
        <mxCell id="23" value="Trade 123/USD" style="rounded=1;fillColor=#23445D;gradientColor=none;strokeColor=none;fontColor=#FFFFFF;fontStyle=1;fontFamily=Tahoma;fontSize=14" parent="1" vertex="1">
          <mxGeometry x="40" y="889.9999999999999" width="130" height="60" as="geometry" />
        </mxCell>
        <mxCell id="RLwRSnZGENSbhSUasO3h-139" style="edgeStyle=orthogonalEdgeStyle;rounded=0;orthogonalLoop=1;jettySize=auto;html=1;entryX=0.5;entryY=0;entryDx=0;entryDy=0;strokeWidth=2;" edge="1" parent="1" source="25" target="RLwRSnZGENSbhSUasO3h-138">
          <mxGeometry relative="1" as="geometry" />
        </mxCell>
        <mxCell id="25" value="Сall to action" style="rounded=1;fillColor=#23445D;gradientColor=none;strokeColor=none;fontColor=#FFFFFF;fontStyle=1;fontFamily=Tahoma;fontSize=14" parent="1" vertex="1">
          <mxGeometry x="430" y="470" width="130" height="60" as="geometry" />
        </mxCell>
        <mxCell id="26" value="Features and&#xa;Benefits" style="rounded=1;fillColor=#23445D;gradientColor=none;strokeColor=none;fontColor=#FFFFFF;fontStyle=1;fontFamily=Tahoma;fontSize=14" parent="1" vertex="1">
          <mxGeometry x="430" y="630" width="130" height="60" as="geometry" />
        </mxCell>
        <mxCell id="27" value="Download app" style="rounded=1;fillColor=#23445D;gradientColor=none;strokeColor=none;fontColor=#FFFFFF;fontStyle=1;fontFamily=Tahoma;fontSize=14" parent="1" vertex="1">
          <mxGeometry x="430" y="710" width="130" height="60" as="geometry" />
        </mxCell>
        <mxCell id="31" value="2-factor&#xa;auentification" style="rounded=1;fillColor=#23445D;gradientColor=none;strokeColor=none;fontColor=#FFFFFF;fontStyle=1;fontFamily=Tahoma;fontSize=14" parent="1" vertex="1">
          <mxGeometry x="650" y="545.5" width="130" height="60" as="geometry" />
        </mxCell>
        <mxCell id="32" value="Koreyko case" style="rounded=1;fillColor=#23445D;gradientColor=none;strokeColor=none;fontColor=#FFFFFF;fontStyle=1;fontFamily=Tahoma;fontSize=14" parent="1" vertex="1">
          <mxGeometry x="650" y="630" width="130" height="60" as="geometry" />
        </mxCell>
        <mxCell id="41" value="Pound" style="rounded=1;fillColor=#23445D;gradientColor=none;strokeColor=none;fontColor=#FFFFFF;fontStyle=1;fontFamily=Tahoma;fontSize=14" parent="1" vertex="1">
          <mxGeometry x="820" y="545.5" width="130" height="60" as="geometry" />
        </mxCell>
        <mxCell id="42" value="Bender" style="rounded=1;fillColor=#23445D;gradientColor=none;strokeColor=none;fontColor=#FFFFFF;fontStyle=1;fontFamily=Tahoma;fontSize=14" parent="1" vertex="1">
          <mxGeometry x="820" y="630" width="130" height="60" as="geometry" />
        </mxCell>
        <mxCell id="43" value="Vorobianinoff" style="rounded=1;fillColor=#23445D;gradientColor=none;strokeColor=none;fontColor=#FFFFFF;fontStyle=1;fontFamily=Tahoma;fontSize=14" parent="1" vertex="1">
          <mxGeometry x="820" y="710" width="130" height="60" as="geometry" />
        </mxCell>
        <mxCell id="59" value="" style="edgeStyle=elbowEdgeStyle;elbow=vertical;strokeWidth=2;rounded=0" parent="1" source="2" target="12" edge="1">
          <mxGeometry x="347" y="225.5" width="100" height="100" as="geometry">
            <mxPoint x="861.9999999999999" y="275.5" as="sourcePoint" />
            <mxPoint x="1466.9999999999998" y="345.5" as="targetPoint" />
            <Array as="points" />
          </mxGeometry>
        </mxCell>
        <mxCell id="61" value="" style="edgeStyle=elbowEdgeStyle;elbow=vertical;strokeWidth=2;rounded=0" parent="1" source="2" target="13" edge="1">
          <mxGeometry x="-23" y="135.5" width="100" height="100" as="geometry">
            <mxPoint x="-23" y="235.5" as="sourcePoint" />
            <mxPoint x="77" y="135.5" as="targetPoint" />
          </mxGeometry>
        </mxCell>
        <mxCell id="62" value="" style="edgeStyle=elbowEdgeStyle;elbow=vertical;strokeWidth=2;rounded=0" parent="1" source="13" target="14" edge="1">
          <mxGeometry x="-23" y="135.5" width="100" height="100" as="geometry">
            <mxPoint x="-23" y="235.5" as="sourcePoint" />
            <mxPoint x="77" y="135.5" as="targetPoint" />
          </mxGeometry>
        </mxCell>
        <mxCell id="64" value="" style="edgeStyle=elbowEdgeStyle;elbow=horizontal;strokeWidth=2;rounded=0" parent="1" source="13" target="16" edge="1">
          <mxGeometry x="-23" y="135.5" width="100" height="100" as="geometry">
            <mxPoint x="-23" y="235.5" as="sourcePoint" />
            <mxPoint x="77" y="135.5" as="targetPoint" />
            <Array as="points">
              <mxPoint x="202" y="435.5" />
            </Array>
          </mxGeometry>
        </mxCell>
        <mxCell id="65" value="" style="edgeStyle=elbowEdgeStyle;elbow=horizontal;strokeWidth=2;rounded=0" parent="1" source="13" target="17" edge="1">
          <mxGeometry x="-23" y="135.5" width="100" height="100" as="geometry">
            <mxPoint x="-23" y="235.5" as="sourcePoint" />
            <mxPoint x="77" y="135.5" as="targetPoint" />
            <Array as="points">
              <mxPoint x="202" y="475.5" />
            </Array>
          </mxGeometry>
        </mxCell>
        <mxCell id="66" value="" style="edgeStyle=elbowEdgeStyle;elbow=horizontal;strokeWidth=2;rounded=0" parent="1" source="13" target="18" edge="1">
          <mxGeometry x="-23" y="135.5" width="100" height="100" as="geometry">
            <mxPoint x="-23" y="235.5" as="sourcePoint" />
            <mxPoint x="77" y="135.5" as="targetPoint" />
            <Array as="points">
              <mxPoint x="202" y="525.5" />
            </Array>
          </mxGeometry>
        </mxCell>
        <mxCell id="67" value="" style="edgeStyle=elbowEdgeStyle;elbow=horizontal;strokeWidth=2;rounded=0" parent="1" source="13" target="19" edge="1">
          <mxGeometry x="-23" y="135.5" width="100" height="100" as="geometry">
            <mxPoint x="-23" y="235.5" as="sourcePoint" />
            <mxPoint x="77" y="135.5" as="targetPoint" />
            <Array as="points">
              <mxPoint x="202" y="575.5" />
            </Array>
          </mxGeometry>
        </mxCell>
        <mxCell id="68" value="" style="edgeStyle=elbowEdgeStyle;elbow=horizontal;strokeWidth=2;rounded=0" parent="1" source="13" target="20" edge="1">
          <mxGeometry x="-23" y="135.5" width="100" height="100" as="geometry">
            <mxPoint x="-23" y="235.5" as="sourcePoint" />
            <mxPoint x="77" y="135.5" as="targetPoint" />
            <Array as="points">
              <mxPoint x="202" y="615.5" />
            </Array>
          </mxGeometry>
        </mxCell>
        <mxCell id="69" value="" style="edgeStyle=elbowEdgeStyle;elbow=horizontal;strokeWidth=2;rounded=0" parent="1" source="13" target="23" edge="1">
          <mxGeometry x="-23" y="135.5" width="100" height="100" as="geometry">
            <mxPoint x="-23" y="235.5" as="sourcePoint" />
            <mxPoint x="77" y="135.5" as="targetPoint" />
            <Array as="points">
              <mxPoint x="202" y="665.5" />
            </Array>
          </mxGeometry>
        </mxCell>
        <mxCell id="RLwRSnZGENSbhSUasO3h-173" style="edgeStyle=orthogonalEdgeStyle;rounded=0;orthogonalLoop=1;jettySize=auto;html=1;strokeWidth=2;" edge="1" parent="1" source="RLwRSnZGENSbhSUasO3h-127" target="RLwRSnZGENSbhSUasO3h-159">
          <mxGeometry relative="1" as="geometry" />
        </mxCell>
        <mxCell id="RLwRSnZGENSbhSUasO3h-174" style="edgeStyle=orthogonalEdgeStyle;rounded=0;orthogonalLoop=1;jettySize=auto;html=1;exitX=0.5;exitY=1;exitDx=0;exitDy=0;entryX=0;entryY=0.5;entryDx=0;entryDy=0;strokeWidth=2;" edge="1" parent="1" source="RLwRSnZGENSbhSUasO3h-127" target="RLwRSnZGENSbhSUasO3h-169">
          <mxGeometry relative="1" as="geometry" />
        </mxCell>
        <mxCell id="RLwRSnZGENSbhSUasO3h-175" style="edgeStyle=orthogonalEdgeStyle;rounded=0;orthogonalLoop=1;jettySize=auto;html=1;exitX=0.5;exitY=1;exitDx=0;exitDy=0;entryX=0;entryY=0.5;entryDx=0;entryDy=0;strokeWidth=2;" edge="1" parent="1" source="RLwRSnZGENSbhSUasO3h-127" target="RLwRSnZGENSbhSUasO3h-171">
          <mxGeometry relative="1" as="geometry" />
        </mxCell>
        <mxCell id="RLwRSnZGENSbhSUasO3h-176" style="edgeStyle=orthogonalEdgeStyle;rounded=0;orthogonalLoop=1;jettySize=auto;html=1;exitX=0.5;exitY=1;exitDx=0;exitDy=0;entryX=0;entryY=0.5;entryDx=0;entryDy=0;strokeWidth=2;" edge="1" parent="1" source="RLwRSnZGENSbhSUasO3h-127" target="RLwRSnZGENSbhSUasO3h-170">
          <mxGeometry relative="1" as="geometry" />
        </mxCell>
        <mxCell id="RLwRSnZGENSbhSUasO3h-177" style="edgeStyle=orthogonalEdgeStyle;rounded=0;orthogonalLoop=1;jettySize=auto;html=1;exitX=0.5;exitY=1;exitDx=0;exitDy=0;entryX=0;entryY=0.5;entryDx=0;entryDy=0;strokeWidth=2;" edge="1" parent="1" source="RLwRSnZGENSbhSUasO3h-127" target="RLwRSnZGENSbhSUasO3h-172">
          <mxGeometry relative="1" as="geometry" />
        </mxCell>
        <mxCell id="RLwRSnZGENSbhSUasO3h-182" style="edgeStyle=orthogonalEdgeStyle;rounded=0;orthogonalLoop=1;jettySize=auto;html=1;exitX=0.5;exitY=1;exitDx=0;exitDy=0;entryX=0.5;entryY=0;entryDx=0;entryDy=0;strokeWidth=2;" edge="1" parent="1" source="RLwRSnZGENSbhSUasO3h-127" target="RLwRSnZGENSbhSUasO3h-150">
          <mxGeometry relative="1" as="geometry" />
        </mxCell>
        <mxCell id="RLwRSnZGENSbhSUasO3h-127" value="Our team" style="rounded=1;fillColor=#23445D;gradientColor=none;strokeColor=none;fontColor=#FFFFFF;fontStyle=1;fontFamily=Tahoma;fontSize=14" vertex="1" parent="1">
          <mxGeometry x="860" y="335.5" width="190" height="80" as="geometry" />
        </mxCell>
        <mxCell id="RLwRSnZGENSbhSUasO3h-194" style="edgeStyle=orthogonalEdgeStyle;rounded=0;orthogonalLoop=1;jettySize=auto;html=1;exitX=0.5;exitY=1;exitDx=0;exitDy=0;entryX=0;entryY=0.5;entryDx=0;entryDy=0;strokeWidth=2;" edge="1" parent="1" source="RLwRSnZGENSbhSUasO3h-129" target="RLwRSnZGENSbhSUasO3h-184">
          <mxGeometry relative="1" as="geometry" />
        </mxCell>
        <mxCell id="RLwRSnZGENSbhSUasO3h-195" style="edgeStyle=orthogonalEdgeStyle;rounded=0;orthogonalLoop=1;jettySize=auto;html=1;exitX=0.5;exitY=1;exitDx=0;exitDy=0;entryX=0.5;entryY=0;entryDx=0;entryDy=0;strokeWidth=2;" edge="1" parent="1" source="RLwRSnZGENSbhSUasO3h-129" target="RLwRSnZGENSbhSUasO3h-187">
          <mxGeometry relative="1" as="geometry" />
        </mxCell>
        <mxCell id="RLwRSnZGENSbhSUasO3h-129" value="News" style="rounded=1;fillColor=#23445D;gradientColor=none;strokeColor=none;fontColor=#FFFFFF;fontStyle=1;fontFamily=Tahoma;fontSize=14" vertex="1" parent="1">
          <mxGeometry x="1117" y="335.5" width="190" height="80" as="geometry" />
        </mxCell>
        <mxCell id="RLwRSnZGENSbhSUasO3h-130" value="Trade 123/USD" style="rounded=1;fillColor=#23445D;gradientColor=none;strokeColor=none;fontColor=#FFFFFF;fontStyle=1;fontFamily=Tahoma;fontSize=14" vertex="1" parent="1">
          <mxGeometry x="40" y="970" width="130" height="60" as="geometry" />
        </mxCell>
        <mxCell id="RLwRSnZGENSbhSUasO3h-138" value="Download from&#xa;Google Play" style="rounded=1;fillColor=#23445D;gradientColor=none;strokeColor=none;fontColor=#FFFFFF;fontStyle=1;fontFamily=Tahoma;fontSize=14" vertex="1" parent="1">
          <mxGeometry x="430" y="560" width="130" height="60" as="geometry" />
        </mxCell>
        <mxCell id="RLwRSnZGENSbhSUasO3h-156" style="edgeStyle=orthogonalEdgeStyle;rounded=0;orthogonalLoop=1;jettySize=auto;html=1;exitX=0;exitY=0.5;exitDx=0;exitDy=0;entryX=0;entryY=0.5;entryDx=0;entryDy=0;strokeWidth=2;" edge="1" parent="1" source="RLwRSnZGENSbhSUasO3h-150" target="41">
          <mxGeometry relative="1" as="geometry" />
        </mxCell>
        <mxCell id="RLwRSnZGENSbhSUasO3h-157" style="edgeStyle=orthogonalEdgeStyle;rounded=0;orthogonalLoop=1;jettySize=auto;html=1;exitX=0;exitY=0.5;exitDx=0;exitDy=0;entryX=0;entryY=0.5;entryDx=0;entryDy=0;strokeWidth=2;" edge="1" parent="1" source="RLwRSnZGENSbhSUasO3h-150" target="42">
          <mxGeometry relative="1" as="geometry" />
        </mxCell>
        <mxCell id="RLwRSnZGENSbhSUasO3h-158" style="edgeStyle=orthogonalEdgeStyle;rounded=0;orthogonalLoop=1;jettySize=auto;html=1;exitX=0;exitY=0.5;exitDx=0;exitDy=0;entryX=0;entryY=0.5;entryDx=0;entryDy=0;strokeWidth=2;" edge="1" parent="1" source="RLwRSnZGENSbhSUasO3h-150" target="43">
          <mxGeometry relative="1" as="geometry" />
        </mxCell>
        <mxCell id="RLwRSnZGENSbhSUasO3h-150" value="Experts" style="rounded=1;fillColor=#23445D;gradientColor=none;strokeColor=none;fontColor=#FFFFFF;fontStyle=1;fontFamily=Tahoma;fontSize=14" vertex="1" parent="1">
          <mxGeometry x="820" y="455.5" width="130" height="60" as="geometry" />
        </mxCell>
        <mxCell id="RLwRSnZGENSbhSUasO3h-159" value="Our partners" style="rounded=1;fillColor=#23445D;gradientColor=none;strokeColor=none;fontColor=#FFFFFF;fontStyle=1;fontFamily=Tahoma;fontSize=14" vertex="1" parent="1">
          <mxGeometry x="990" y="455.5" width="130" height="60" as="geometry" />
        </mxCell>
        <mxCell id="30" value="GoldenCalf" style="rounded=1;fillColor=#23445D;gradientColor=none;strokeColor=none;fontColor=#FFFFFF;fontStyle=1;fontFamily=Tahoma;fontSize=14" parent="1" vertex="1">
          <mxGeometry x="650" y="470" width="130" height="60" as="geometry" />
        </mxCell>
        <mxCell id="RLwRSnZGENSbhSUasO3h-165" style="edgeStyle=orthogonalEdgeStyle;rounded=0;orthogonalLoop=1;jettySize=auto;html=1;exitX=0.5;exitY=1;exitDx=0;exitDy=0;entryX=0;entryY=0.5;entryDx=0;entryDy=0;strokeWidth=2;" edge="1" parent="1" source="10" target="30">
          <mxGeometry relative="1" as="geometry">
            <mxPoint x="705" y="415.5" as="sourcePoint" />
            <mxPoint x="730" y="660" as="targetPoint" />
          </mxGeometry>
        </mxCell>
        <mxCell id="RLwRSnZGENSbhSUasO3h-169" value="Key clients" style="rounded=1;fillColor=#23445D;gradientColor=none;strokeColor=none;fontColor=#FFFFFF;fontStyle=1;fontFamily=Tahoma;fontSize=14" vertex="1" parent="1">
          <mxGeometry x="990" y="545.5" width="130" height="60" as="geometry" />
        </mxCell>
        <mxCell id="RLwRSnZGENSbhSUasO3h-170" value="Mission" style="rounded=1;fillColor=#23445D;gradientColor=none;strokeColor=none;fontColor=#FFFFFF;fontStyle=1;fontFamily=Tahoma;fontSize=14" vertex="1" parent="1">
          <mxGeometry x="990" y="710" width="130" height="60" as="geometry" />
        </mxCell>
        <mxCell id="RLwRSnZGENSbhSUasO3h-171" value="Achievements" style="rounded=1;fillColor=#23445D;gradientColor=none;strokeColor=none;fontColor=#FFFFFF;fontStyle=1;fontFamily=Tahoma;fontSize=14" vertex="1" parent="1">
          <mxGeometry x="990" y="630" width="130" height="60" as="geometry" />
        </mxCell>
        <mxCell id="RLwRSnZGENSbhSUasO3h-206" style="edgeStyle=orthogonalEdgeStyle;rounded=0;orthogonalLoop=1;jettySize=auto;html=1;exitX=0.5;exitY=1;exitDx=0;exitDy=0;entryX=0.5;entryY=0;entryDx=0;entryDy=0;strokeWidth=2;" edge="1" parent="1" source="RLwRSnZGENSbhSUasO3h-172" target="RLwRSnZGENSbhSUasO3h-202">
          <mxGeometry relative="1" as="geometry" />
        </mxCell>
        <mxCell id="RLwRSnZGENSbhSUasO3h-207" style="edgeStyle=orthogonalEdgeStyle;rounded=0;orthogonalLoop=1;jettySize=auto;html=1;exitX=0.5;exitY=1;exitDx=0;exitDy=0;entryX=0.5;entryY=0;entryDx=0;entryDy=0;strokeWidth=2;" edge="1" parent="1" source="RLwRSnZGENSbhSUasO3h-172" target="RLwRSnZGENSbhSUasO3h-204">
          <mxGeometry relative="1" as="geometry" />
        </mxCell>
        <mxCell id="RLwRSnZGENSbhSUasO3h-208" style="edgeStyle=orthogonalEdgeStyle;rounded=0;orthogonalLoop=1;jettySize=auto;html=1;exitX=0.5;exitY=1;exitDx=0;exitDy=0;strokeWidth=2;" edge="1" parent="1" source="RLwRSnZGENSbhSUasO3h-172" target="RLwRSnZGENSbhSUasO3h-205">
          <mxGeometry relative="1" as="geometry" />
        </mxCell>
        <mxCell id="RLwRSnZGENSbhSUasO3h-209" style="edgeStyle=orthogonalEdgeStyle;rounded=0;orthogonalLoop=1;jettySize=auto;html=1;exitX=0.5;exitY=1;exitDx=0;exitDy=0;strokeWidth=2;" edge="1" parent="1" source="RLwRSnZGENSbhSUasO3h-172" target="RLwRSnZGENSbhSUasO3h-203">
          <mxGeometry relative="1" as="geometry" />
        </mxCell>
        <mxCell id="RLwRSnZGENSbhSUasO3h-172" value="Our services" style="rounded=1;fillColor=#23445D;gradientColor=none;strokeColor=none;fontColor=#FFFFFF;fontStyle=1;fontFamily=Tahoma;fontSize=14" vertex="1" parent="1">
          <mxGeometry x="990" y="790" width="130" height="60" as="geometry" />
        </mxCell>
        <mxCell id="RLwRSnZGENSbhSUasO3h-200" style="edgeStyle=orthogonalEdgeStyle;rounded=0;orthogonalLoop=1;jettySize=auto;html=1;exitX=0.5;exitY=1;exitDx=0;exitDy=0;entryX=0.5;entryY=0;entryDx=0;entryDy=0;strokeWidth=2;" edge="1" parent="1" source="RLwRSnZGENSbhSUasO3h-179" target="RLwRSnZGENSbhSUasO3h-186">
          <mxGeometry relative="1" as="geometry" />
        </mxCell>
        <mxCell id="RLwRSnZGENSbhSUasO3h-179" value="Get started" style="rounded=1;fillColor=#23445D;gradientColor=none;strokeColor=none;fontColor=#FFFFFF;fontStyle=1;fontFamily=Tahoma;fontSize=14" vertex="1" parent="1">
          <mxGeometry x="1599.9999999999998" y="335.5" width="190" height="80" as="geometry" />
        </mxCell>
        <mxCell id="RLwRSnZGENSbhSUasO3h-183" value="First crypnonews" style="rounded=1;fillColor=#23445D;gradientColor=none;strokeColor=none;fontColor=#FFFFFF;fontStyle=1;fontFamily=Tahoma;fontSize=14" vertex="1" parent="1">
          <mxGeometry x="1330" y="545.5" width="130" height="60" as="geometry" />
        </mxCell>
        <mxCell id="RLwRSnZGENSbhSUasO3h-184" value="Subscription" style="rounded=1;fillColor=#23445D;gradientColor=none;strokeColor=none;fontColor=#FFFFFF;fontStyle=1;fontFamily=Tahoma;fontSize=14" vertex="1" parent="1">
          <mxGeometry x="1237" y="710" width="130" height="60" as="geometry" />
        </mxCell>
        <mxCell id="RLwRSnZGENSbhSUasO3h-185" value="Second cyptonews" style="rounded=1;fillColor=#23445D;gradientColor=none;strokeColor=none;fontColor=#FFFFFF;fontStyle=1;fontFamily=Tahoma;fontSize=14" vertex="1" parent="1">
          <mxGeometry x="1330" y="630" width="130" height="60" as="geometry" />
        </mxCell>
        <mxCell id="RLwRSnZGENSbhSUasO3h-186" value="Create account" style="rounded=1;fillColor=#23445D;gradientColor=none;strokeColor=none;fontColor=#FFFFFF;fontStyle=1;fontFamily=Tahoma;fontSize=14" vertex="1" parent="1">
          <mxGeometry x="1630" y="470" width="130" height="60" as="geometry" />
        </mxCell>
        <mxCell id="RLwRSnZGENSbhSUasO3h-198" style="edgeStyle=orthogonalEdgeStyle;rounded=0;orthogonalLoop=1;jettySize=auto;html=1;exitX=0.5;exitY=1;exitDx=0;exitDy=0;entryX=0;entryY=0.5;entryDx=0;entryDy=0;strokeWidth=2;" edge="1" parent="1" source="RLwRSnZGENSbhSUasO3h-187" target="RLwRSnZGENSbhSUasO3h-185">
          <mxGeometry relative="1" as="geometry" />
        </mxCell>
        <mxCell id="RLwRSnZGENSbhSUasO3h-199" style="edgeStyle=orthogonalEdgeStyle;rounded=0;orthogonalLoop=1;jettySize=auto;html=1;exitX=0.5;exitY=1;exitDx=0;exitDy=0;entryX=0;entryY=0.5;entryDx=0;entryDy=0;strokeWidth=2;" edge="1" parent="1" source="RLwRSnZGENSbhSUasO3h-187" target="RLwRSnZGENSbhSUasO3h-183">
          <mxGeometry relative="1" as="geometry" />
        </mxCell>
        <mxCell id="RLwRSnZGENSbhSUasO3h-187" value="Latest news" style="rounded=1;fillColor=#23445D;gradientColor=none;strokeColor=none;fontColor=#FFFFFF;fontStyle=1;fontFamily=Tahoma;fontSize=14" vertex="1" parent="1">
          <mxGeometry x="1237" y="455.5" width="130" height="60" as="geometry" />
        </mxCell>
        <mxCell id="RLwRSnZGENSbhSUasO3h-210" style="edgeStyle=orthogonalEdgeStyle;rounded=0;orthogonalLoop=1;jettySize=auto;html=1;exitX=0.5;exitY=1;exitDx=0;exitDy=0;entryX=0;entryY=0.5;entryDx=0;entryDy=0;strokeWidth=2;" edge="1" parent="1" source="RLwRSnZGENSbhSUasO3h-202" target="13">
          <mxGeometry relative="1" as="geometry">
            <Array as="points">
              <mxPoint x="745" y="1050" />
              <mxPoint x="20" y="1050" />
              <mxPoint x="20" y="376" />
            </Array>
          </mxGeometry>
        </mxCell>
        <mxCell id="RLwRSnZGENSbhSUasO3h-202" value="Exchange" style="rounded=1;fillColor=#23445D;gradientColor=none;strokeColor=none;fontColor=#FFFFFF;fontStyle=1;fontFamily=Tahoma;fontSize=14" vertex="1" parent="1">
          <mxGeometry x="680" y="890" width="130" height="60" as="geometry" />
        </mxCell>
        <mxCell id="RLwRSnZGENSbhSUasO3h-203" value="Market charts" style="rounded=1;fillColor=#23445D;gradientColor=none;strokeColor=none;fontColor=#FFFFFF;fontStyle=1;fontFamily=Tahoma;fontSize=14" vertex="1" parent="1">
          <mxGeometry x="1270" y="890" width="130" height="60" as="geometry" />
        </mxCell>
        <mxCell id="RLwRSnZGENSbhSUasO3h-211" style="edgeStyle=orthogonalEdgeStyle;rounded=0;orthogonalLoop=1;jettySize=auto;html=1;exitX=0.5;exitY=1;exitDx=0;exitDy=0;entryX=1;entryY=0.5;entryDx=0;entryDy=0;strokeWidth=2;" edge="1" parent="1" source="RLwRSnZGENSbhSUasO3h-204" target="12">
          <mxGeometry relative="1" as="geometry">
            <Array as="points">
              <mxPoint x="935" y="1100" />
              <mxPoint x="580" y="1100" />
              <mxPoint x="580" y="376" />
            </Array>
          </mxGeometry>
        </mxCell>
        <mxCell id="RLwRSnZGENSbhSUasO3h-204" value="Application" style="rounded=1;fillColor=#23445D;gradientColor=none;strokeColor=none;fontColor=#FFFFFF;fontStyle=1;fontFamily=Tahoma;fontSize=14" vertex="1" parent="1">
          <mxGeometry x="870" y="890" width="130" height="60" as="geometry" />
        </mxCell>
        <mxCell id="RLwRSnZGENSbhSUasO3h-205" value="Stocks oracle" style="rounded=1;fillColor=#23445D;gradientColor=none;strokeColor=none;fontColor=#FFFFFF;fontStyle=1;fontFamily=Tahoma;fontSize=14" vertex="1" parent="1">
          <mxGeometry x="1080" y="890" width="130" height="60" as="geometry" />
        </mxCell>
        <mxCell id="RLwRSnZGENSbhSUasO3h-212" value="" style="fillColor=#f8cecc;strokeColor=#b85450;opacity=30;" vertex="1" parent="1">
          <mxGeometry x="25" y="435.5" width="345" height="604.5" as="geometry" />
        </mxCell>
        <mxCell id="RLwRSnZGENSbhSUasO3h-213" value="" style="fillColor=#d5e8d4;strokeColor=#82b366;opacity=30;" vertex="1" parent="1">
          <mxGeometry x="390" y="435.5" width="180" height="354.5" as="geometry" />
        </mxCell>
        <mxCell id="RLwRSnZGENSbhSUasO3h-214" value="" style="fillColor=#10739E;strokeColor=none;opacity=30;" vertex="1" parent="1">
          <mxGeometry x="610" y="425.5" width="1190" height="564.5" as="geometry" />
        </mxCell>
      </root>
    </mxGraphModel>
  </diagram>
</mxfile>
